<?xml version="1.0" encoding="UTF-8"?>
<svg width="168px" height="168px" viewBox="0 0 168 168" version="1.1" xmlns="http://www.w3.org/2000/svg" xmlns:xlink="http://www.w3.org/1999/xlink">
    <!-- Generator: Sketch 52.2 (67145) - http://www.bohemiancoding.com/sketch -->
    <title>Laravel Forge Backups</title>
    <g id="Page-1" stroke="none" stroke-width="1" fill="none" fill-rule="evenodd">
        <path d="M129.687732,42.602 C128.718732,41.416 127.011732,41 123.750732,41 L113.431732,41 C110.263732,41 108.464732,41.577 107.003732,42.858 C104.819732,44.636 102.451732,48.191 100.421732,57 C98.3917325,65.809 99.1147325,69.268 100.498732,71.142 C101.405732,72.407 102.943732,73 106.127732,73 L116.276732,73 C119.122732,73 121.321732,72.488 122.874732,71.142 C124.981732,69.348 127.011732,66.658 128.718732,58.938 L129.441732,55.815 C129.533732,55.382 129.287732,55.046 128.872732,55.046 L114.815732,55.046 C114.378558,55.0702431 114.012629,55.3860669 113.924732,55.815 L112.786732,60.892 C112.693732,61.308 112.939732,61.661 113.355732,61.661 L119.198732,61.661 L119.122732,61.901 C118.645732,64.191 117.814732,65.04 117.414732,65.392 C117.076732,65.632 116.615732,65.712 115.385732,65.712 L111.232732,65.712 C109.848732,65.712 109.433732,65.632 109.279732,65.376 C109.033732,64.96 108.802732,63.438 110.263732,57 C111.724732,50.562 112.616732,49.12 113.108732,48.688 C113.431732,48.448 113.831732,48.368 115.215732,48.368 L119.122732,48.368 C120.506732,48.368 120.829732,48.448 120.998732,48.704 C121.022732,48.739 121.048732,48.773 121.074732,48.808 C121.304732,49.111 121.596732,49.498 121.321732,51.234 C121.228732,51.587 121.474732,51.923 121.890732,51.923 L129.441732,51.923 C129.885123,51.9062295 130.259663,51.5886755 130.348732,51.154 C131.225732,46.237 130.825732,44.043 129.687732,42.602 Z M59.9297325,41.256 C63.1127325,41.256 64.5737325,41.849 65.4657325,43.018 C66.7737325,44.812 67.4957325,48.368 65.3887325,57.08 C63.2667325,65.809 60.9137325,69.268 58.7147325,71.142 C57.2537325,72.327 55.4697325,72.904 52.3017325,72.904 L42.1367325,72.904 C38.9687325,72.904 37.4157325,72.327 36.6007325,71.142 C35.3087325,69.365 34.5707325,65.809 36.7537325,57.08 C38.8767325,48.367 41.3217325,44.892 43.5207325,43.034 C44.9817325,41.85 46.7657325,41.256 49.9337325,41.256 L59.9297325,41.256 Z M45.1347325,65.216 C45.2887325,65.472 45.7037325,65.536 47.0117325,65.536 L50.9177325,65.536 C52.2097325,65.536 52.7017325,65.472 53.0247325,65.216 C53.4397325,64.864 54.1627325,64.031 55.7927325,57.08 C57.4837325,50.145 57.1767325,49.296 56.9307325,48.96 C56.7767325,48.704 56.3617325,48.608 55.0547325,48.608 L51.2407325,48.608 C49.9327325,48.608 49.4567325,48.704 49.1177325,48.96 C48.7187325,49.28 47.9797325,50.145 46.3497325,57.08 C44.5657325,64.111 44.8887325,64.864 45.1347325,65.216 Z M81.9677325,62.077 C83.9207325,62.077 84.2587325,62.253 84.5667325,62.67 L84.5817325,62.686 C84.8897325,63.166 85.0587325,63.599 84.7357325,65.889 C84.2437325,68.339 83.9207325,70.293 83.6747325,72.231 C83.5977325,72.664 83.9207325,72.92 84.2437325,72.92 L92.2867325,72.92 C92.7017325,72.92 93.1017325,72.488 93.1787325,72.071 C93.5017325,69.711 93.9117325,67.366 94.4087325,65.041 C95.3777325,60.459 93.8397325,59.451 90.9947325,58.698 L90.9947325,58.602 C94.6547325,57.849 96.7617325,56.152 98.1457325,50.225 C99.2067325,45.821 98.8837325,44.299 97.9147325,42.858 C97.0077325,41.673 95.3777325,41.256 92.3787325,41.256 L73.8317325,41.256 C73.3989501,41.2779827 73.0340239,41.5860426 72.9397325,42.009 L65.7127325,72.151 C65.6357325,72.584 65.8657325,72.92 66.2817325,72.92 L74.1707325,72.92 C74.6082877,72.8961969 74.974739,72.5802764 75.0627325,72.151 L77.2467325,62.846 C77.335802,62.4113245 77.7103422,62.0937705 78.1537325,62.077 L81.9677325,62.077 Z M155.461732,73 L131.162732,73 C130.747732,73 130.501732,72.664 130.578732,72.231 L137.406732,41.753 C137.50195,41.3241112 137.875631,41.0142186 138.314732,41 L166.610732,41 C167.087732,41 167.333732,41.496 167.010732,42.009 C165.780732,44.043 161.074732,48.367 155.784732,48.367 L145.941732,48.367 C145.50895,48.3889827 145.144024,48.6970426 145.049732,49.12 L144.327732,52.516 C144.250732,52.932 144.480732,53.268 144.896732,53.268 L158.152732,53.268 C158.552732,53.268 158.798732,53.605 158.721732,54.037 L157.583732,59.37 C157.488609,59.7985381 157.115456,60.1083335 156.676732,60.123 L143.435732,60.123 C142.998177,60.1468031 142.631726,60.4627236 142.543732,60.892 L141.635732,64.784 C141.558732,65.216 141.789732,65.553 142.204732,65.553 L157.091732,65.553 C157.491732,65.553 157.737732,65.873 157.660732,66.305 L156.353732,72.151 C156.297196,72.6106511 155.923614,72.9662238 155.461732,73 Z M5.30473248,41.256 L38.6297325,41.256 C39.0457325,41.256 39.1987325,41.593 39.0457325,42.089 L35.5547325,47.855 C35.4617325,48.287 35.0627325,48.608 34.6467325,48.608 L21.5597325,48.608 C21.1284683,48.6388852 20.7702501,48.9525813 20.6827325,49.376 L19.4527325,54.117 C19.3757325,54.549 19.6067325,54.886 20.0217325,54.886 L28.7107325,54.886 C29.1257325,54.886 29.3717325,55.222 29.2797325,55.639 L27.9877325,60.892 C27.9107325,61.308 27.4957325,61.661 27.0957325,61.661 L18.3917325,61.661 C17.9592452,61.6828659 17.5944129,61.9904376 17.4997325,62.413 L15.0547325,72.231 C14.9777325,72.664 14.5777325,73 14.1627325,73 L0.583732484,73 C0.167732484,73 -0.0622675163,72.664 0.0147324837,72.231 L0.829732484,69.188 C0.905732484,68.852 1.16773248,68.516 1.47473248,68.419 C1.68773248,68.363 1.94073248,68.31 2.22173248,68.252 C3.99973248,67.886 6.91073248,67.287 7.82673248,63.775 L8.07273248,62.67 L10.9177325,51.587 L11.1487325,50.465 C12.0297325,47.15 7.50373248,46.429 5.11373248,46.049 C4.58373248,45.964 4.15773248,45.896 3.92073248,45.821 C3.67473248,45.645 3.52073248,45.404 3.59773248,45.052 L4.41273248,42.009 C4.50671473,41.5858554 4.87181743,41.2776465 5.30473248,41.256 Z M83.9977325,55.222 L83.9977325,55.302 L79.7687325,55.302 C79.3527325,55.302 79.1227325,54.966 79.1997325,54.55 L80.4297325,49.296 C80.5240239,48.8730426 80.8889501,48.5649827 81.3217325,48.543 L85.5507325,48.543 C87.2577325,48.543 87.6577325,48.608 87.9037325,48.863 C88.2267325,49.28 88.3037325,49.969 87.9037325,51.843 C87.5037325,53.701 87.0887325,54.453 86.5197325,54.886 C86.1967325,55.142 85.7047325,55.222 83.9977325,55.222 Z" id="Shape" fill="#19B69B" fill-rule="nonzero"></path>
        <g id="Laravel" transform="translate(48.000000, 88.000000)" fill="#19B69B">
            <path d="M70.9599629,16.5145123 C70.9862896,16.6118335 70.9997496,16.7121775 71,16.8129878 L71,32.4822412 C71.0000148,32.8916059 70.7807345,33.2696926 70.4251823,33.4733515 L57.2572804,41.0452054 L57.2572804,56.0532426 C57.2572804,56.4616829 57.0399364,56.8387047 56.6853224,57.0443529 L29.1984533,72.8478489 C29.1355379,72.8835517 29.066903,72.9064015 28.998268,72.9306794 C28.9725299,72.9392481 28.9482217,72.9549573 28.9210537,72.9620979 C28.7289101,73.012634 28.5269404,73.012634 28.3347968,72.9620979 C28.3033391,72.9535292 28.2747412,72.9363919 28.2447134,72.924967 C28.181798,72.9021172 28.1160229,72.8821236 28.0559673,72.8478489 L0.574817739,57.0443529 C0.219482023,56.8404768 0.000281548117,56.4625277 0,56.0532426 L0,9.04548244 C0,8.94265832 0.0142989487,8.84269043 0.0400370564,8.74557876 C0.0486164257,8.71273216 0.0686349539,8.6827418 0.0800741129,8.6498952 C0.101522536,8.58991447 0.121541064,8.52850562 0.152998751,8.47280922 C0.174447174,8.43567829 0.205904862,8.40568792 0.231642969,8.37141321 C0.264530551,8.3257136 0.294558344,8.27858588 0.333165505,8.23859872 C0.366053087,8.20575213 0.408949934,8.18147421 0.4461272,8.15291196 C0.487594152,8.11863725 0.524771418,8.08150632 0.571957949,8.05437217 L0.573387844,8.05437217 L14.3146776,0.152624176 C14.6687637,-0.0508747254 15.1045073,-0.0508747254 15.4585935,0.152624176 L29.1998832,8.05437217 L29.202743,8.05437217 C29.2484996,8.08293443 29.2871068,8.11863725 29.3285737,8.15148384 C29.365751,8.1800461 29.4072179,8.20575213 29.4401055,8.23717061 C29.4801426,8.27858588 29.5087405,8.3257136 29.543058,8.37141321 C29.5673662,8.40568792 29.6002538,8.43567829 29.6202723,8.47280922 C29.6531599,8.52993373 29.6717485,8.58991447 29.6946268,8.6498952 C29.706066,8.6827418 29.7260845,8.71273216 29.7346639,8.74700687 C29.7609905,8.84432808 29.7744505,8.94467211 29.7747009,9.04548244 L29.7747009,38.406053 L41.2252991,31.821025 L41.2252991,16.8115597 C41.2252991,16.7115918 41.239598,16.6101958 41.2653361,16.5145123 C41.2753454,16.4802376 41.293934,16.4502472 41.3053732,16.4174006 C41.3282515,16.3574199 41.34827,16.296011 41.3797277,16.2403146 C41.4011761,16.2031837 41.4326338,16.1731933 41.456942,16.1389186 C41.4912595,16.093219 41.5198574,16.0460913 41.5598945,16.0061041 C41.5927821,15.9732575 41.634249,15.9489796 41.6714263,15.9204174 C41.7143231,15.8861426 41.7515004,15.8490117 41.797257,15.8218776 L41.7986869,15.8218776 L55.5414065,7.92012957 C55.8954142,7.71633747 56.3313148,7.71633747 56.6853224,7.92012957 L70.4266122,15.8218776 C70.4752286,15.8504398 70.5124058,15.8861426 70.5553027,15.9189892 C70.5910501,15.9475515 70.632517,15.9732575 70.6654046,16.004676 C70.7054417,16.0460913 70.7340396,16.093219 70.768357,16.1389186 C70.7940951,16.1731933 70.8255528,16.2031837 70.8455714,16.2403146 C70.8784589,16.296011 70.8970476,16.3574199 70.9199259,16.4174006 C70.9327949,16.4502472 70.9513836,16.4802376 70.9599629,16.5145123 Z M68.7093084,31.821025 L68.7093084,18.790924 L63.900572,21.5557504 L57.2572804,25.3759521 L57.2572804,38.406053 L68.7107383,31.821025 L68.7093084,31.821025 Z M54.9680187,55.3920264 L54.9680187,42.3533568 L48.4333991,46.0807311 L29.773271,56.7173151 L29.773271,69.8788024 L54.9680187,55.3920264 Z M2.29069159,11.0234186 L2.29069159,55.3920264 L27.4825794,69.8773743 L27.4825794,56.7187432 L14.321827,49.2797037 L14.3175374,49.2768475 L14.3118178,49.2739913 C14.267491,49.2482852 14.2303138,49.2111543 14.1888468,49.1797358 C14.1530994,49.1511736 14.1116325,49.1283238 14.0801748,49.0969053 L14.077315,49.0926209 C14.0401378,49.0569181 14.0143996,49.0126466 13.982942,48.9726595 C13.9543441,48.9341004 13.9200266,48.9012538 13.8971483,48.8612667 L13.8957184,48.8569823 C13.8699803,48.814139 13.8542514,48.7627269 13.8356628,48.7141711 C13.8170742,48.6713277 13.7927659,48.6313405 13.7813268,48.5856409 L13.7813268,48.5842128 C13.7670278,48.5299445 13.764168,48.47282 13.7584485,48.4171236 C13.7527289,48.3742802 13.7412897,48.3314368 13.7412897,48.2885935 L13.7412897,48.2857372 L13.7412897,17.6084467 L7.09942804,13.7868169 L2.29069159,11.0248468 L2.29069159,11.0234186 Z M14.8880654,2.46331065 L3.43889717,9.04548244 L14.8852056,15.6276542 L26.332944,9.04405433 L14.8852056,2.46331065 L14.8880654,2.46331065 Z M20.8421477,43.5415466 L27.4840093,39.722773 L27.4840093,11.0234186 L22.6752729,13.788245 L16.0319813,17.6084467 L16.0319813,46.307801 L20.8421477,43.5415466 Z M56.1133645,10.230816 L44.6656261,16.8129878 L56.1133645,23.3951596 L67.5596729,16.8115597 L56.1133645,10.230816 Z M54.9680187,25.3759521 L48.3247271,21.5557504 L43.5159907,18.790924 L43.5159907,31.821025 L50.1578523,35.6397986 L54.9680187,38.406053 L54.9680187,25.3759521 Z M28.6264953,54.7393789 L45.4177508,45.1653108 L53.8112337,40.381133 L42.3720748,33.8032456 L29.2013131,41.3765276 L17.1973456,48.2785967 L28.6264953,54.7393789 Z" id="Shape"></path>
        </g>
    </g>
</svg>